. 
  
http://www.torrenting.com/        :     Greatest Movie Tracker on The Net!!!
 
http://www.Torrenting.com          :     Once & For all ;)


               www . Torrenting . Com 

(((((((((((((= Enjoy No RAR releases =))))))))))))))))))))


...................................NFO:....................................

.[img]http://img600.imageshack.us/img600/9474/battlejk.jpg[/img]

[color=blue][size=5][b]Battle Los Angeles 2011 R5 AC3-5.1 NEW AUDIO XViD Hive-CM8[/b][/size][/color]


[b]Thx Hive

CM8 Doing It Right The First Time :D


Sources:

Russian DVD-9
Inoplanetnoe.vtorzhenie.Bitva.za.Los-Andzheles.2011.D.DVD.ELEKTRI4KA  thx

New sweet Line Audio 
peeraccess (thx guys)


Encode:
the usual - brightness,sharpness,rgb,denoise
i synced audio to the r5 lipsync and entered it back into the russian 5.1 track

enjoy


Video: 720x304 @bitrate 1900 2pass
Audio: English AC3 5.1 @448
Sample: yes included[/b]



[url]http://www.imdb.com/title/tt1217613/[/url]


General
Complete name                    : Battle.Los.Angeles.2011.R5.AC3-5.1.NEW.AUDIO.XViD.Hive-CM8.avi
Format                           : AVI
Format/Info                      : Audio Video Interleave
File size                        : 1.83 GiB
Duration                         : 1h 51mn
Overall bit rate                 : 2 357 Kbps
Writing application              : Nandub v1.0rc2
Writing library                  : Nandub build 1853/release

Video
ID                               : 0
Format                           : MPEG-4 Visual
Format profile                   : Advanced Simple@L5
Format settings, BVOP            : Yes
Format settings, QPel            : Yes
Format settings, GMC             : No warppoints
Format settings, Matrix          : Default (H.263)
Muxing mode                      : Packed bitstream
Codec ID                         : XVID
Codec ID/Hint                    : XviD
Duration                         : 1h 51mn
Bit rate                         : 1 899 Kbps
Width                            : 720 pixels
Height                           : 304 pixels
Display aspect ratio             : 2.35:1
Frame rate                       : 25.000 fps
Color space                      : YUV
Chroma subsampling               : 4:2:0
Bit depth                        : 8 bits
Scan type                        : Progressive
Bits/(Pixel*Frame)               : 0.347
Stream size                      : 1.48 GiB (81%)
Writing library                  : XviD 1.2.1 (UTC 2008-12-04)

Audio
ID                               : 1
Format                           : AC-3
Format/Info                      : Audio Coding 3
Mode extension                   : CM (complete main)
Codec ID                         : 2000
Duration                         : 1h 51mn
Bit rate mode                    : Constant
Bit rate                         : 448 Kbps
Channel(s)                       : 6 channels
Channel positions                : Front: L C R, Side: L R, LFE
Sampling rate                    : 48.0 KHz
Bit depth                        : 16 bits
Stream size                      : 357 MiB (19%)
Alignment                        : Split accross interleaves
Interleave, duration             : 40 ms (1.00 video frame)
Interleave, preload duration     : 500 ms



Aaron Eckhart	... 	Sgt. Michael Nantz
Ramon Rodriguez	... 	2nd Lt. William Martinez
Cory Hardrict	... 	Cpl. Jason Lockett
Gino Anthony Pesi	... 	Cpl. Nick Stavrou
Ne-Yo	... 	Cpl. Kevin Harris
James Hiroyuki Liao	... 	LCpl. Steven Mottola
Bridget Moynahan	... 	Michele
Noel Fisher	... 	Pfc. Shaun Lenihan


A Marine Staff Sergeant who has just had his retirement approved
goes back into the line of duty in order to assist a 2nd Lieutenant
and his platoon as they fight to reclaim the city of Los Angeles
from alien invaders. 



[img]http://img151.imageshack.us/img151/600/95893484.png[/img]
[img]http://img19.imageshack.us/img19/4513/babawf.png[/img]
[img]http://img222.imageshack.us/img222/2287/bbaaba.png[/img]
[img]http://img703.imageshack.us/img703/7220/bbabaaba.png[/img]
[img]http://img810.imageshack.us/img810/5809/bbababaaba.png[/img]
[img]http://img138.imageshack.us/img138/6011/bbabababaaba.png[/img]
[img]http://img708.imageshack.us/img708/9268/bbababababaaba.png[/img]
[img]http://img18.imageshack.us/img18/59/bbabababababaaba.png[/img]
[img]http://img268.imageshack.us/img268/6144/bbababababababaaba.png[/img]
[img]http://img848.imageshack.us/img848/4456/bbabababababababaaba.png[/img]
[img]http://img5.imageshack.us/img5/2130/bbababababababababaaba.png[/img]





Greetz

iNK,LUSi,,MAGNET,THC,LEGi0N,T0XiC,IMAGiNE,ViSiON,WBZ,FLAWL3SS,NOVA
Vik,OneTwo,joey, Rapeseed,D2U,SAFC,goldadvance,MEMORY100,KaN1vE,Unevano,Pinnz,Wayne,Mr Hive
and all P2P groups 
Great Work Guys :D

CM8@hushmail.com